<svg xmlns="http://www.w3.org/2000/svg" width="300" height="300" viewBox="0 0 300 300" version="1.1"><path d="M 170.388 73.980 C 168.170 74.876, 164 79.599, 164 81.214 C 164 81.734, 162.905 84.936, 161.567 88.329 C 159.250 94.204, 151.420 115.197, 130.359 172 C 125.158 186.025, 119.800 200.317, 118.452 203.761 C 115.110 212.293, 115.228 216.382, 118.923 220.077 C 121.265 222.418, 122.707 222.996, 126.173 222.978 C 132.739 222.944, 134.449 220.960, 139.515 207.495 C 141.997 200.898, 144.896 193.250, 145.958 190.500 C 147.020 187.750, 152.229 173.800, 157.533 159.500 C 162.838 145.200, 171.188 122.772, 176.089 109.661 C 180.990 96.549, 185 84.758, 185 83.458 C 185 79.544, 182.912 76.186, 179.460 74.548 C 175.858 72.839, 173.568 72.695, 170.388 73.980 M 68.559 123.011 L 43.500 148.021 68 172.443 C 83.767 188.159, 93.480 197.106, 95.250 197.541 C 102.136 199.234, 108 194.463, 108 187.169 C 108 182.630, 108 182.629, 90.787 165.314 L 73.574 147.999 91.287 130.186 C 106.956 114.429, 109 111.999, 109 109.121 C 109 102.332, 104.785 98.056, 98.059 98.022 L 93.619 98 68.559 123.011 M 196.367 99.772 C 193.460 102.127, 192 105.245, 192 109.096 C 192 111.938, 194.116 114.461, 209.699 130.201 L 227.399 148.079 210.748 164.790 C 201.590 173.980, 193.671 182.648, 193.149 184.051 C 190.359 191.557, 197.779 199.501, 205.750 197.541 C 207.520 197.106, 217.234 188.159, 233 172.445 L 257.500 148.025 235.500 125.910 C 223.400 113.746, 211.745 102.490, 209.600 100.897 C 205.082 97.541, 199.688 97.082, 196.367 99.772" stroke="none" fill="#fcf8f8" fill-rule="evenodd"/><path d="M 132.500 4.915 C 108.194 8.641, 88.605 15.822, 70 27.828 C 54.467 37.852, 39.341 52.701, 28.071 68.990 C 20.315 80.201, 11.206 100.325, 8.604 112 C 7.685 116.125, 6.518 120.850, 6.011 122.500 C 4.555 127.244, 3 141.701, 3 150.500 C 3 178.349, 13.120 210.865, 28.833 233.500 C 44.031 255.394, 70.286 277.128, 90.500 284.547 C 93.250 285.556, 96.400 286.940, 97.500 287.621 C 98.600 288.302, 106.025 290.574, 114 292.670 L 128.500 296.479 150 296.449 C 162.622 296.432, 173.152 295.960, 175.500 295.307 C 177.700 294.695, 183.775 293.077, 189 291.711 C 200.178 288.789, 204.260 287.173, 216.997 280.633 C 249.026 264.186, 272.902 237.586, 286.786 202.882 C 289.534 196.014, 292.574 184.309, 295.198 170.500 C 296.505 163.622, 296.469 137.814, 295.142 130.500 C 289.322 98.426, 278.844 75.788, 259.657 53.842 C 241.130 32.651, 212.870 15.002, 188.500 9.405 C 184.650 8.521, 178.800 7.124, 175.500 6.302 C 168.715 4.611, 140.436 3.699, 132.500 4.915 M 170.388 73.980 C 168.170 74.876, 164 79.599, 164 81.214 C 164 81.734, 162.905 84.936, 161.567 88.329 C 159.250 94.204, 151.420 115.197, 130.359 172 C 125.158 186.025, 119.800 200.317, 118.452 203.761 C 115.110 212.293, 115.228 216.382, 118.923 220.077 C 121.265 222.418, 122.707 222.996, 126.173 222.978 C 132.739 222.944, 134.449 220.960, 139.515 207.495 C 141.997 200.898, 144.896 193.250, 145.958 190.500 C 147.020 187.750, 152.229 173.800, 157.533 159.500 C 162.838 145.200, 171.188 122.772, 176.089 109.661 C 180.990 96.549, 185 84.758, 185 83.458 C 185 79.544, 182.912 76.186, 179.460 74.548 C 175.858 72.839, 173.568 72.695, 170.388 73.980 M 68.559 123.011 L 43.500 148.021 68 172.443 C 83.767 188.159, 93.480 197.106, 95.250 197.541 C 102.136 199.234, 108 194.463, 108 187.169 C 108 182.630, 108 182.629, 90.787 165.314 L 73.574 147.999 91.287 130.186 C 106.956 114.429, 109 111.999, 109 109.121 C 109 102.332, 104.785 98.056, 98.059 98.022 L 93.619 98 68.559 123.011 M 196.367 99.772 C 193.460 102.127, 192 105.245, 192 109.096 C 192 111.938, 194.116 114.461, 209.699 130.201 L 227.399 148.079 210.748 164.790 C 201.590 173.980, 193.671 182.648, 193.149 184.051 C 190.359 191.557, 197.779 199.501, 205.750 197.541 C 207.520 197.106, 217.234 188.159, 233 172.445 L 257.500 148.025 235.500 125.910 C 223.400 113.746, 211.745 102.490, 209.600 100.897 C 205.082 97.541, 199.688 97.082, 196.367 99.772" stroke="none" fill="#f46454" fill-rule="evenodd"/></svg>